<svg xmlns="http://www.w3.org/2000/svg" aria-hidden="true" style="position:absolute;width:0;height:0;overflow:hidden"><defs><symbol id="icon-checkmark" viewBox="0 0 32 32"><path d="M12.42 28.678-.013 16.44l6.168-6.071 6.265 6.167L25.846 3.322l6.168 6.071L12.42 28.678zM3.372 16.441l9.048 8.905L28.628 9.393l-2.782-2.739L12.42 19.868l-6.265-6.167-2.782 2.739z"/></symbol><symbol id="icon-checkbox" viewBox="0 0 32 32"><path stroke-width="2" d="M4 1h24a3 3 0 0 1 3 3v24a3 3 0 0 1-3 3H4a3 3 0 0 1-3-3V4a3 3 0 0 1 3-3z"/></symbol><symbol id="icon-personblack" viewBox="0 0 32 32"><path d="M16 16c2.947 0 5.333-2.387 5.333-5.333S18.946 5.334 16 5.334c-2.947 0-5.333 2.387-5.333 5.333S13.054 16 16 16zm0 2.667c-3.56 0-10.667 1.787-10.667 5.333v1.333c0 .733.6 1.333 1.333 1.333h18.667c.733 0 1.333-.6 1.333-1.333V24c0-3.547-7.107-5.333-10.667-5.333z"/></symbol><symbol id="icon-frame" viewBox="0 0 32 32"><path fill="#fff" d="m32 2.667-32 15 10.227 3.156L26 8.5 14.002 21.988l.01.003-.012-.003v7.345l5.735-5.576L27 25.999l5-23.333z" style="fill:var(--color1, #fff)"/></symbol><symbol id="icon-phoneblack" viewBox="0 0 24 32"><path d="m19.635 18.487-2.451-.28a1.92 1.92 0 0 0-1.582.55l-1.775 1.775a14.514 14.514 0 0 1-6.359-6.359l1.785-1.785c.415-.415.618-.994.55-1.582l-.28-2.432a1.931 1.931 0 0 0-1.92-1.708H5.934c-1.09 0-1.997.907-1.93 1.997.511 8.24 7.102 14.821 15.332 15.332 1.09.068 1.997-.839 1.997-1.93v-1.669a1.913 1.913 0 0 0-1.698-1.911z"/></symbol><symbol id="icon-emailblack" viewBox="0 0 24 32"><path d="M20 8H4c-1.1 0-1.99.9-1.99 2L2 22c0 1.1.9 2 2 2h16c1.1 0 2-.9 2-2V10c0-1.1-.9-2-2-2zm-.4 4.25-7.07 4.42c-.32.2-.74.2-1.06 0L4.4 12.25a.85.85 0 1 1 .9-1.44L12 15l6.7-4.19a.85.85 0 1 1 .9 1.44z"/></symbol><symbol id="icon-closeblack" viewBox="0 0 32 32"><path d="M32 3.223 28.777 0 16 12.777 3.223 0 0 3.223 12.777 16 0 28.777 3.223 32 16 19.223 28.777 32 32 28.777 19.223 16 32 3.223z"/></symbol><symbol id="icon-antenna" viewBox="0 0 32 32"><path fill="#2e2f42" d="m30.773 22.098-8.443-8.505.937-4.615c.242.094.499.144.758.146h.032a2.16 2.16 0 1 0-2.029-1.42l-.005-.015-4.96.605L8.972.161a.53.53 0 0 0-.377-.16.533.533 0 0 0-.373.155L6.709 1.66a.535.535 0 0 0 0 .754l.814.826C6.38 5.302 5.707 7.762 5.707 10.379c0 4.105 1.656 7.824 4.336 10.525l-.001-.001c.041.04.09.073.143.097l.003.001c-.034.18-.051.364-.052.547v6.187h-6.4a2.67 2.67 0 0 0-2.667 2.667v1.067c0 .295.239.533.533.533h24.533a.533.533 0 0 0 .533-.533v-1.067a2.67 2.67 0 0 0-2.667-2.667h-6.4v-2.742c.915.2 1.968.317 3.047.32h.002a14.784 14.784 0 0 0 7.117-1.822l-.077.039.818.823a.53.53 0 0 0 .377.16.533.533 0 0 0 .373-.155l1.513-1.504a.535.535 0 0 0 0-.754zM23.28 6.233a1.067 1.067 0 1 1 .754 1.822h-.004a1.067 1.067 0 0 1-.747-1.823h-.002zm-1.256 3.505-.598 2.946-1.175-1.182 1.774-1.763zm-.605-.902-1.92 1.909-1.485-1.493 3.405-.415zM24.004 28.8a1.6 1.6 0 0 1 1.6 1.6v.533H2.137V30.4a1.6 1.6 0 0 1 1.6-1.6h20.267zm-7.467-2.133v1.067h-5.333v-1.067h5.333zM11.204 25.6v-4.053c0-1.294 1.196-2.347 2.667-2.347s2.667 1.053 2.667 2.347V25.6h-5.333zm6.4-1.696v-2.357c0-1.882-1.675-3.413-3.733-3.413h-.058c-1.353 0-2.54.707-3.213 1.771l-.009.016a13.816 13.816 0 0 1-3.811-9.55c0-2.314.567-4.496 1.569-6.414l-.036.077 18.602 18.708c-1.823.947-3.979 1.502-6.266 1.502-1.079 0-2.129-.124-3.136-.358l.093.018zm11.289-.684L7.836 2.039l.755-.752 7.935 7.98c.004 0 .006.007.01.01l13.115 13.191-.757.752z" style="fill:var(--color2, #2e2f42)"/><path fill="#4d5ae5" d="M13.876 20.267h-.007a1.6 1.6 0 0 0-.002 3.2h.007a1.6 1.6 0 0 0 .002-3.2zm.373 1.978a.534.534 0 0 1-.752-.756.533.533 0 0 1 .373-.155.534.534 0 0 1 .374.911h.005z" style="fill:var(--color3, #4d5ae5)"/></symbol><symbol id="icon-astronaut" viewBox="0 0 32 32"><path fill="#4d5ae5" d="M31.974 4.524a.538.538 0 0 0-.427-.363h-.003l-1.91-.278-.855-1.731c-.179-.365-.777-.365-.956 0l-.855 1.731-1.91.278a.536.536 0 0 0-.296.91l1.383 1.348-.326 1.903a.536.536 0 0 0 .525.624.524.524 0 0 0 .252-.064l-.003.001 1.709-.899 1.709.899a.536.536 0 0 0 .774-.566v.003l-.326-1.903 1.383-1.348a.535.535 0 0 0 .134-.551l.001.004zm-2.463 1.327a.533.533 0 0 0-.153.475v-.003l.191 1.114-1-.526a.525.525 0 0 0-.501.001l.003-.001-1.001.526.191-1.114a.53.53 0 0 0-.153-.472l-.81-.789 1.119-.163a.537.537 0 0 0 .401-.289l.001-.003.5-1.013.5 1.013a.54.54 0 0 0 .399.292h.003l1.119.163-.809.789zm-3.378 14.671h-1.067v1.067h1.067v-1.067zm0 2.134h-1.067v1.067h1.067v-1.067zm1.067-1.067h-1.067v1.067H27.2v-1.067zm-2.133 0H24v1.067h1.067v-1.067zm-2.667 4.8h-1.067v1.067H22.4v-1.067zm0 2.133h-1.067v1.067H22.4v-1.067zm1.067-1.066H22.4v1.067h1.067v-1.067zm-2.134 0h-1.067v1.067h1.067v-1.067zM16 24.256h-1.067v1.067H16v-1.067zm0 2.133h-1.067v1.067H16v-1.067zm1.067-1.067H16v1.067h1.067v-1.067zm-2.134 0h-1.067v1.067h1.067v-1.067zm-9.066-19.2H4.8v1.067h1.067V6.122zm0 2.133H4.8v1.067h1.067V8.255z" style="fill:var(--color3, #4d5ae5)"/><path fill="#4d5ae5" d="M6.933 7.189H5.866v1.067h1.067V7.189zm-2.133 0H3.733v1.067H4.8V7.189z" style="fill:var(--color3, #4d5ae5)"/><path fill="#2e2f42" d="M24.715 14.159a1.78 1.78 0 0 0-1.179-.704l-.009-.001a1.769 1.769 0 0 0-1.344.355l.004-.003-1.252.96-1.898 1.417-1.358-.541c2.421-1.086 4.114-3.508 4.114-6.32 0-3.823-3.123-6.933-6.961-6.933s-6.961 3.11-6.961 6.933v.001c0 1.398.418 2.698 1.136 3.782l-.016-.025-2.769-.024c-.009 0-.015.004-.023.005a.523.523 0 0 0-.159.032l.004-.001-.038.013c-.006.003-.013.003-.019.006l-3.234 1.597-1.893.911a.429.429 0 0 0-.064.036l.001-.001a1.78 1.78 0 0 0-.594 2.305l-.005-.01c.22.429.595.745 1.056.889a1.768 1.768 0 0 0 1.388-.133l-.009.005 1.388-.738 2.264-1.169 1.357-.008-6.783 6.75c-.316.315-.49.732-.49 1.178s.174.863.49 1.179c.325.323.752.485 1.179.485s.854-.162 1.18-.485l1.314-1.309 1.741-1.3.901.897-3.103 3.088c-.316.315-.49.732-.49 1.178s.174.863.49 1.179c.325.323.753.485 1.18.485s.855-.162 1.18-.485l3.483-3.469 1.01-1-.004-.004c.006-.006.015-.009.022-.015l5.166-5.658 3.471.494a.517.517 0 0 0 .265-.034l-.003.001c.018-.006.033-.015.05-.023.019-.01.039-.015.058-.027l3.213-2.133c.012-.008.018-.021.029-.029.013-.01.029-.014.041-.026l1.271-1.191c.662-.62.753-1.635.212-2.362zM2.13 17.77a.706.706 0 0 1-.563.05l.005.001a.719.719 0 0 1-.215-1.258l.002-.001 1.314-.632.449 1.313-.992.527zm3.498-1.828-1.548.8-.439-1.283 2.027-1.001-.04 1.484zm15.099-6.62a5.765 5.765 0 0 1-.614 2.592l.015-.033-4.181-1.899a1.863 1.863 0 0 0-.782-1.384l-.006-.004 1.464-4.86c2.378.756 4.105 2.974 4.105 5.588zm-11.789 0c0-3.235 2.644-5.867 5.894-5.867.253 0 .5.021.745.052l-1.432 4.754c-.019-.001-.037-.006-.057-.006-1.033 0-1.873.837-1.873 1.867s.84 1.867 1.873 1.867c.694 0 1.294-.383 1.618-.945l3.862 1.755a5.894 5.894 0 0 1-4.737 2.39c-3.25 0-5.894-2.632-5.894-5.867zm5.956.8c0 .441-.362.8-.806.8s-.806-.359-.806-.8c0-.441.362-.8.806-.8s.806.359.806.8zM2.465 25.146a.606.606 0 0 1-.855.001.59.59 0 0 1 0-.844l.962-.958.851.848-.959.955zm3.214 3.734a.606.606 0 0 1-.855.001.59.59 0 0 1 0-.844l.963-.959.852.848-.96.955zm3.481-3.469-.002.001-1.765 1.76-.852-.848 1.765-1.756c.04-.04.065-.088.09-.135.007-.014.02-.026.026-.04.017-.041.019-.085.026-.129.003-.025.014-.047.014-.073 0-.036-.013-.07-.02-.106-.006-.032-.006-.065-.019-.095a.56.56 0 0 0-.091-.138c-.01-.012-.014-.027-.025-.038h-.001l-.001-.002-1.607-1.6c-.017-.017-.039-.024-.058-.038a.563.563 0 0 0-.084-.057l-.003-.001a.444.444 0 0 0-.089-.032l-.004-.001a.502.502 0 0 0-.101-.02h-.023a.468.468 0 0 0-.076.006h.003a.608.608 0 0 0-.108.021l.004-.001a.502.502 0 0 0-.096.046l.002-.001c-.02.011-.042.015-.061.029l-1.773 1.324-.901-.897 2.399-2.386 4.361 4.289-.928.919zm6.819-7.017c-.015-.002-.03.004-.045.003h-.02a.552.552 0 0 0-.282.077l.003-.001a.481.481 0 0 0-.083.061c-.013.011-.028.017-.04.029l-4.698 5.146-4.328-4.257 2.833-2.818a.535.535 0 0 0-.378-.911H8.94v-.001l-2.219.013.028-1.607 3.104.027a6.926 6.926 0 0 0 4.978 2.101h.004c.437 0 .864-.045 1.279-.123.04.032.079.065.13.085l2.41.96.152.758.178.885-3.003-.427zm4.041.178-.313-1.558 1.446-1.08.947 1.257-2.08 1.381zm3.754-2.831-.838.785-.931-1.236.831-.637a.734.734 0 0 1 .547-.143h-.004a.72.72 0 0 1 .479.282l.001.002a.712.712 0 0 1-.085.947z" style="fill:var(--color2, #2e2f42)"/><path fill="#2e2f42" d="m13.602 18.544-2.143-2.133a.534.534 0 0 0-.754 0l-2.142 2.133a.537.537 0 0 0 0 .756l2.142 2.133a.533.533 0 0 0 .754-.001l2.143-2.133a.535.535 0 0 0 0-.756zm-2.519 1.759-1.387-1.381 1.387-1.381 1.387 1.381-1.387 1.381zm6.081-15.232-.258 1.036c.071.018 1.738.452 1.738 2.149h1.067c0-2.017-1.666-2.965-2.547-3.185zm2.547 4.251h-1.067v1.067h1.067V9.322z" style="fill:var(--color2, #2e2f42)"/></symbol><symbol id="icon-client1" viewBox="0 0 61 32"><path d="m25.455 8.364 2.548 2.428-4.73-.003v11.779h12.364v-4.504l2.545 2.425V8.364H25.455zm10.07 9.415L28.3 10.895h7.225v6.884zm-2.244 3.066h-8.052v-7.922h.569v7.386h7.483v.536zm-6.446 3.905-.3-.617h-.248l.435.817v.476h.225v-.476l.435-.817h-.247l-.3.617zm1.106-.618h.053l.488 1.293h-.234l-.105-.303h-.5l-.104.303h-.233l.486-1.293h.149zm-.237.814h.378l-.189-.548-.189.548zm1.562-.214-.028-.036c-.033-.044-.059-.086-.077-.127s-.028-.084-.028-.128c0-.067.014-.125.042-.174s.067-.086.118-.112a.373.373 0 0 1 .169-.04h.01c.066 0 .122.013.17.04s.085.061.11.104c.024.04.039.088.039.14v.002c0 .041-.007.078-.022.112s-.035.064-.061.092a.6.6 0 0 1-.089.078l-.002.001-.09.065.256.302.023-.052a.508.508 0 0 0 .033-.182v-.007h.185a.784.784 0 0 1-.019.178.576.576 0 0 1-.096.215l.001-.002.189.224h-.248l-.075-.088a.48.48 0 0 1-.13.071l-.003.001a.583.583 0 0 1-.2.034h-.001c-.086 0-.16-.016-.223-.047s-.111-.075-.146-.13a.353.353 0 0 1-.017-.33l-.001.002a.427.427 0 0 1 .09-.112c.035-.032.075-.063.12-.095zm.106.129-.027.019c-.031.025-.055.05-.07.074s-.025.044-.029.064a.216.216 0 0 0 .018.156l-.001-.001a.192.192 0 0 0 .071.073h.001a.231.231 0 0 0 .109.027h.008a.328.328 0 0 0 .208-.074h-.001l-.288-.338zm.051-.236.079-.053c.037-.025.064-.049.08-.073s.024-.054.024-.091a.129.129 0 0 0-.129-.124h-.007c-.03 0-.056.007-.076.021s-.036.032-.047.055a.186.186 0 0 0-.015.073v.003c0 .027.007.054.02.083.02.041.043.076.071.107zm2.262.379h-.222c-.006.056-.02.104-.041.143s-.05.068-.09.088a.334.334 0 0 1-.14.03h-.015.001c-.052 0-.097-.01-.134-.031s-.068-.05-.092-.088c-.024-.038-.041-.083-.053-.136s-.017-.112-.017-.178v-.109c0-.069.006-.13.019-.183s.032-.099.058-.136c.025-.037.057-.064.095-.083s.082-.028.133-.028c.062 0 .112.011.151.032s.067.051.087.091c.02.04.033.087.039.143h.222c-.009-.086-.033-.163-.073-.23s-.094-.119-.165-.157a.541.541 0 0 0-.244-.057h-.018.001c-.081 0-.154.014-.219.043s-.12.07-.166.123c-.046.053-.082.117-.107.193s-.036.159-.036.252v.107c0 .093.012.177.036.252s.059.139.105.193c.046.053.1.093.164.122s.136.043.216.043c.104 0 .193-.019.265-.057s.129-.09.17-.155a.51.51 0 0 0 .071-.224v-.002zm1.233-.19v-.071c0-.098-.013-.185-.039-.262s-.062-.144-.109-.198a.456.456 0 0 0-.17-.125.548.548 0 0 0-.44.001l.004-.001a.482.482 0 0 0-.169.124v.001c-.047.054-.084.12-.11.198s-.039.164-.039.262v.071c0 .098.013.185.039.263s.064.144.112.198c.09.103.222.168.369.168h.02-.001.02a.48.48 0 0 0 .366-.168l.001-.001c.047-.054.084-.12.109-.198s.038-.165.038-.263zm-.223-.073v.073c0 .072-.007.136-.021.192s-.034.103-.06.141a.26.26 0 0 1-.215.114h-.015.001c-.049 0-.093-.009-.131-.028s-.072-.048-.099-.086c-.027-.038-.048-.086-.062-.141s-.021-.12-.021-.192v-.073c0-.072.007-.136.021-.191s.035-.102.061-.139c.027-.038.06-.066.099-.085s.082-.029.131-.029.093.01.132.029c.039.019.072.047.099.085s.048.084.061.139a.78.78 0 0 1 .021.18v.011-.001z"/></symbol><symbol id="icon-client2" viewBox="0 0 61 32"><path d="M29.86 7.976h-.05c-.076-.005-.153-.006-.229-.008h-.186c-.158 0-.316.004-.472.012l.022-.001a10.24 10.24 0 0 0-3.885 1.003l.061-.027-.157.076v8.051l.368-.125c.323-.111.667-.211 1.023-.303.88-.235 1.892-.377 2.935-.391h.009v1.058c-.14.001-.276.005-.41.012l.023-.001h-.03c-.764.042-1.523.158-2.265.348-1.025.26-1.923.62-2.757 1.081l.059-.03V8.405a10.57 10.57 0 0 1 2.756-1.135l.075-.016c.8-.215 1.718-.34 2.666-.344h.157c.186.005.367.013.537.026.448.032.893.102 1.329.212v1.041a7.754 7.754 0 0 0-1.262-.192l-.026-.002-.026-.002a2.877 2.877 0 0 0-.261-.015h-.002zm1.832 1.064c.231.018.47.026.712.026a11.38 11.38 0 0 0 2.885-.378l-.08.018c.939-.236 1.846-.59 2.697-1.052v10.142c-.885.516-1.838.903-2.831 1.151-.872.224-1.768.339-2.668.343h-.067a8.145 8.145 0 0 1-2.013-.251l.056.012V8.843a8.07 8.07 0 0 0 1.281.194l.028.002zm5.161.079-.368.124c-.338.114-.68.215-1.023.306-.999.257-2.026.388-3.057.392-.24 0-.461-.006-.674-.02l-.293-.019v8.283l.252.022c.234.02.475.03.718.03a9.741 9.741 0 0 0 2.475-.327l-.068.015a10.023 10.023 0 0 0 1.941-.702l-.06.026.157-.076V9.119zm-12.221 13.14a.535.535 0 0 0-.388-.165h-.022.001-.008a.596.596 0 0 0-.232.046l.004-.001a.531.531 0 0 0-.302.302l-.001.004a.579.579 0 0 0-.042.22V24.076c0 .095.02.184.056.265l-.002-.004c.06.14.179.244.325.282l.003.001a.587.587 0 0 0 .777-.552v-.154h-.361v.131a.324.324 0 0 1-.022.117l.001-.002a.248.248 0 0 1-.052.078.235.235 0 0 1-.073.04h-.002a.286.286 0 0 1-.075.013l-.022.001a.182.182 0 0 1-.148-.075.325.325 0 0 1-.048-.171v-.015.001-1.299c0-.07.016-.137.045-.196l-.001.003a.181.181 0 0 1 .177-.082h-.001c.031-.001.062.005.09.019s.052.034.071.059c.037.05.06.112.06.18v.124h.357v-.148a.632.632 0 0 0-.165-.428v.001zm2.142-.016a.64.64 0 0 0-.41-.152h-.002a.61.61 0 0 0-.404.153l.001-.001a.579.579 0 0 0-.192.462v-.001V24.044c0 .092.019.179.054.258l-.002-.004a.533.533 0 0 0 .139.184l.001.001c.055.051.12.091.19.117.069.025.142.038.215.039s.146-.013.215-.039a.567.567 0 0 0 .384-.536l-.001-.039v.002-1.337a.634.634 0 0 0-.054-.258l.002.004a.571.571 0 0 0-.136-.193zm-.168 1.784a.23.23 0 0 1-.072.192.266.266 0 0 1-.34-.001.24.24 0 0 1-.073-.173l.001-.02v.001-1.323l-.001-.023a.23.23 0 0 1 .073-.169.266.266 0 0 1 .34.001.24.24 0 0 1 .073.173l-.001.02v-.001 1.323zm2.982.591v-2.505h-.347l-.455 1.326h-.006l-.459-1.326h-.343v2.505h.358v-1.524h.006l.35 1.077h.178l.353-1.077h.006v1.524h.358zm2.033-2.329a.51.51 0 0 0-.199-.136l-.003-.001a.788.788 0 0 0-.249-.039h-.541v2.505h.357v-.978h.184l.03.001a.655.655 0 0 0 .296-.07l-.004.002a.528.528 0 0 0 .195-.189l.001-.002a.594.594 0 0 0 .081-.214l.001-.004c.014-.094.02-.19.019-.285l.001-.04c0-.113-.013-.222-.037-.327l.002.01a.527.527 0 0 0-.132-.23zm-.184.763a.322.322 0 0 1-.034.132l.001-.002a.207.207 0 0 1-.091.087l-.001.001a.353.353 0 0 1-.148.032l-.021-.001h.001-.163v-.852H31.183c.052 0 .101.012.146.032l-.002-.001a.203.203 0 0 1 .083.091l.001.001c.02.044.03.091.031.14v.166c0 .058.004.118 0 .172h-.004zm1.875-.939h-.293l-.552 2.505h.357l.105-.538h.487l.105.538h.357l-.566-2.505zm-.329 1.626.176-.908h.006l.175.908h-.357zm2.635-.117h-.006l-.539-1.509h-.343v2.505h.357v-1.506h.007l.545 1.506h.336v-2.505h-.357v1.509zm2.181-1.509-.287.996h-.007l-.287-.996h-.378l.49 1.446v1.059h.357v-1.059l.49-1.446h-.378zm-14.163 3.212h.172v.483h.117v-.483h.171v-.099h-.46v.099zm1.446-.099-.225.582h.124l.048-.132h.232l.05.132h.127l-.231-.582h-.124zm-.018.352.079-.215.079.215h-.158zm1.448.015h.134v.075a.22.22 0 0 1-.138.049H26.5a.143.143 0 0 1-.114-.056.238.238 0 0 1-.043-.138v-.015.001c0-.129.056-.194.167-.194l.013-.001c.058 0 .106.039.119.093v.001l.115-.022c-.025-.114-.107-.171-.247-.171h-.008a.294.294 0 0 0-.195.075.28.28 0 0 0-.084.2l.001.025v-.001.014c0 .078.029.149.076.204.028.029.063.052.101.067s.079.021.12.018h.009a.353.353 0 0 0 .238-.092v-.229h-.252v.098zm1.46-.367h-.118v.582h.407v-.099h-.29v-.483zm1.234 0h-.118v.582h.118v-.582zm1.207.389-.238-.388h-.114v.582h.109v-.38l.234.38h.117v-.582h-.108v.388zm1.091-.063h.29v-.099h-.29v-.128h.312v-.099h-.43v.582h.442v-.099h-.324v-.157zm2.646-.096h-.229v-.229h-.117v.582h.117v-.254h.229v.254h.117v-.582h-.117v.229zm1.097.096h.291v-.099h-.291v-.128h.313v-.099h-.43v.582h.441v-.099h-.324v-.157zm1.489 0c.101-.016.153-.069.153-.162l.001-.017a.138.138 0 0 0-.058-.113.326.326 0 0 0-.148-.035l-.023.001h.001-.247v.582h.117v-.243h.033c.023 0 .044.005.063.014h-.001a.127.127 0 0 1 .041.042v.001l.127.185h.14l-.071-.114a.398.398 0 0 0-.128-.139l-.001-.001zm-.118-.081h-.086v-.146h.092c.04-.003.08.001.119.014.008.008.015.017.02.027s.007.022.006.033c0 .011-.004.022-.009.032s-.013.019-.022.025a.348.348 0 0 1-.099.015l-.021-.001h.001zm1.24.081h.289v-.099h-.289v-.128h.313v-.099h-.431v.582h.441v-.099h-.324v-.157z"/></symbol><symbol id="icon-client3" viewBox="0 0 61 32"><path d="M25.022 23.718h.002c.011 0 .022.005.029.012l.08.076a.654.654 0 0 1-.222.142l-.004.002a.877.877 0 0 1-.297.051h-.024.001-.015a.887.887 0 0 1-.292-.05l.006.002a.623.623 0 0 1-.425-.59v-.024.001-.014c0-.185.081-.351.21-.464l.001-.001a.724.724 0 0 1 .236-.134l.005-.002a.946.946 0 0 1 .299-.048h.012-.001.018c.097 0 .19.016.276.046l-.006-.002c.079.029.152.07.216.121l-.067.081a.061.061 0 0 1-.017.015c-.008.005-.018.007-.027.006s-.02-.004-.029-.009l-.036-.021-.05-.027a.662.662 0 0 0-.062-.025l-.005-.002a.709.709 0 0 0-.438.008l.005-.002a.467.467 0 0 0-.287.259l-.001.003a.53.53 0 0 0-.041.206v.014c0 .075.015.147.042.213l-.001-.004a.46.46 0 0 0 .275.258l.003.001a.579.579 0 0 0 .2.034H24.604a.987.987 0 0 0 .122-.008h-.005a.495.495 0 0 0 .266-.112l-.001.001a.073.073 0 0 1 .038-.014zm2.318-.38v.007c0 .094-.02.184-.056.264l.002-.004c-.033.077-.084.148-.151.207s-.148.105-.237.136a.985.985 0 0 1-.617-.002l.007.002a.712.712 0 0 1-.237-.137l.001.001a.61.61 0 0 1-.151-.205l-.002-.004a.68.68 0 0 1 .002-.538l-.002.004a.624.624 0 0 1 .385-.34l.004-.001a.956.956 0 0 1 .617.002l-.007-.002c.089.031.17.077.237.136a.619.619 0 0 1 .206.462v.014-.001zm-.21 0v-.014a.553.553 0 0 0-.039-.204l.001.004a.449.449 0 0 0-.274-.26l-.003-.001a.712.712 0 0 0-.449.002l.005-.001a.475.475 0 0 0-.17.101.415.415 0 0 0-.107.157l-.001.003a.614.614 0 0 0 .002.434l-.001-.004c.05.123.151.218.275.259l.003.001a.713.713 0 0 0 .449-.002l-.005.001a.443.443 0 0 0 .276-.257l.001-.003a.537.537 0 0 0 .038-.201v-.014.001zm1.792.225.021.048.023-.048c.008-.015.016-.032.026-.047l.513-.797c.01-.014.019-.022.029-.025s.021-.004.032-.004h.162v1.296h-.18v-1.038l-.516.808c-.007.012-.017.022-.03.029s-.028.011-.044.011h-.029c-.016 0-.031-.004-.044-.011s-.024-.017-.03-.03l-.531-.813v1.04h-.174v-1.293h.159a.22.22 0 0 1 .036.004h-.001a.057.057 0 0 1 .028.025l.524.798a.265.265 0 0 1 .025.044l.001.002zm1.931-.064v.485h-.201V22.69h.463a.96.96 0 0 1 .242.03l-.007-.001a.485.485 0 0 1 .178.082l-.001-.001a.326.326 0 0 1 .099.125l.001.002a.37.37 0 0 1 .034.158v.014a.363.363 0 0 1-.144.289l-.001.001a.532.532 0 0 1-.174.085l-.004.001a.877.877 0 0 1-.23.03h-.013.001l-.243-.003zm0-.139h.252a.54.54 0 0 0 .151-.021l-.004.001a.334.334 0 0 0 .113-.057l-.001.001a.248.248 0 0 0 .092-.192v-.003c.002-.036-.005-.072-.02-.105s-.04-.064-.07-.088a.432.432 0 0 0-.237-.07l-.034.001h.002-.243v.533zm2.698.626h-.161a.074.074 0 0 1-.042-.012.083.083 0 0 1-.026-.03l-.136-.313H32.5l-.142.313a.07.07 0 0 1-.025.029.078.078 0 0 1-.043.013h-.161l.602-1.296h.209l.61 1.296zm-.994-.481h.566l-.239-.527a.742.742 0 0 1-.043-.116l-.002-.006-.023.068c-.007.021-.015.039-.022.055l-.237.527zm1.861-.809a.1.1 0 0 1 .03.023l.878.977V22.69h.18v1.296h-.1c-.014 0-.028-.002-.041-.008s-.023-.014-.032-.024l-.877-.976v1.008h-.18V22.69h.106c.012 0 .025.002.036.006zm2.567.774v.515h-.201v-.515l-.555-.78h.185a.07.07 0 0 1 .038.011c.011.008.02.018.027.029l.347.503a.615.615 0 0 1 .059.111l.002.004.026-.056a.577.577 0 0 1 .035-.061l-.001.002.343-.507a.166.166 0 0 1 .026-.027.068.068 0 0 1 .039-.013h.186l-.556.784zm-8.162-2.955c.087.009.176.017.265.024 1.354-.518 2.5-1.365 3.294-2.436s1.201-2.318 1.17-3.585l-1.493-1.275c.303 1.349.162 2.744-.41 4.029s-1.55 2.408-2.826 3.244z"/><path d="m28.29 20.456.04.007c1.364-.833 2.403-1.997 2.984-3.341s.677-2.805.276-4.196l-2.126-1.816c.86 1.493 1.206 3.164.998 4.818s-.961 3.225-2.172 4.528zm7.21-4.441c-.361 1.393-1.238 2.648-2.501 3.581-.344.258-.733.5-1.142.708l-.046.021c1.028-.258 1.974-.715 2.763-1.335s1.401-1.386 1.789-2.24l-.862-.736z"/><path d="m35.162 15.81-1.228-1.049c-.023 1.196-.421 2.364-1.152 3.384s-1.768 1.854-3.004 2.416h.006c.275 0 .551-.014.824-.042 1.155-.403 2.175-1.044 2.97-1.865s1.339-1.799 1.584-2.844zm-6.694-5.466-1.465-1.253c-1.309.432-2.435 1.192-3.231 2.18s-1.223 2.158-1.227 3.357c.005 1.325.527 2.611 1.483 3.654s2.293 1.784 3.797 2.105c1.343-1.398 2.13-3.126 2.245-4.932s-.446-3.597-1.604-5.111zm10.077 5.273c-.005-1.572-.739-3.079-2.04-4.19s-3.064-1.738-4.904-1.743h-.017c-.883 0-1.732.145-2.524.411l.056-.016 8.967 7.661a5.042 5.042 0 0 0 .464-2.123v-.001z"/></symbol><symbol id="icon-client4" viewBox="0 0 61 32"><path d="M20.392 13.643h-.001c-.867 0-1.571.634-1.571 1.416v.001c0 .782.703 1.416 1.571 1.416h.001c.867 0 1.571-.634 1.571-1.416v-.001c0-.782-.703-1.416-1.571-1.416zm11.594-.453c-.002-1.086-.482-2.128-1.334-2.896s-2.007-1.201-3.212-1.203c-1.205.002-2.361.434-3.213 1.203s-1.332 1.81-1.335 2.896v5.991s9.092-.913 9.093-5.99v-.001zm-16.35 7.957c.002.756.336 1.48.929 2.015s1.396.836 2.234.838c.838-.002 1.641-.303 2.234-.838s.927-1.259.929-2.014V16.98s-6.327.636-6.327 4.167zm3.164.747c-.164 0-.324-.044-.46-.126s-.242-.199-.305-.335-.079-.287-.047-.432c.032-.145.111-.278.227-.382s.263-.176.424-.204c.161-.029.327-.014.479.043s.281.152.372.275a.694.694 0 0 1-.1.944l-.001.001c-.077.07-.168.125-.269.163s-.209.057-.318.057v-.003zm5.785-1.343v1.551h-.32v-1.551h.32zm.618.663v.249h-.705v-.249h.705zm.075-.663v.25h-.78v-.25h.78zm1.459.739v.074c0 .118-.016.224-.048.317s-.077.174-.135.24c-.058.065-.128.115-.209.15s-.169.052-.267.052c-.097 0-.186-.017-.267-.052s-.15-.085-.209-.15c-.059-.066-.105-.146-.137-.24s-.048-.2-.048-.317v-.074c0-.119.016-.224.048-.317s.077-.174.135-.24c.059-.066.129-.116.209-.151s.17-.052.267-.052c.098 0 .187.017.267.052s.151.085.209.151c.059.066.104.146.136.24s.049.199.049.317zm-.323.074v-.076c0-.082-.007-.155-.022-.217s-.037-.115-.066-.158-.065-.075-.107-.096c-.042-.022-.09-.033-.144-.033s-.102.011-.144.033c-.041.021-.076.053-.105.096s-.05.095-.065.158a.922.922 0 0 0-.022.203v.015-.001.076c0 .082.007.154.022.217s.037.115.066.159a.29.29 0 0 0 .242.13h.022a.279.279 0 0 0 .235-.129l.001-.001c.028-.043.05-.096.065-.159s.022-.136.022-.217zm1.361.332c0-.028-.004-.053-.013-.075s-.023-.043-.045-.062c-.022-.019-.053-.038-.093-.056s-.091-.038-.154-.058c-.07-.023-.137-.048-.2-.077s-.118-.061-.166-.099c-.048-.038-.085-.083-.113-.133s-.04-.109-.04-.176c0-.065.014-.123.043-.176s.068-.099.119-.136c.051-.038.111-.068.181-.088s.147-.031.231-.031c.114 0 .214.021.299.062s.151.098.198.169a.425.425 0 0 1 .071.238v.009h-.317c0-.045-.01-.085-.029-.119s-.047-.062-.085-.082a.301.301 0 0 0-.132-.03h-.012.001c-.055 0-.102.009-.138.026s-.065.039-.083.067a.165.165 0 0 0-.028.093v.001c0 .026.006.05.019.071s.033.041.06.06.059.036.097.052c.038.016.083.032.133.048.084.026.159.054.223.086s.119.068.162.108c.043.04.076.085.098.135s.033.108.033.172v.017c0 .123-.06.231-.152.298l-.001.001c-.05.037-.109.065-.178.084a.86.86 0 0 1-.464-.003l.006.001a.675.675 0 0 1-.205-.094l.002.001c-.06-.041-.109-.094-.145-.158s-.054-.14-.054-.227h.321c0 .048.007.089.022.122s.036.06.063.081c.028.021.06.035.098.045a.502.502 0 0 0 .266-.01l-.003.001a.169.169 0 0 0 .107-.157v-.002zm1.23-1.145v1.551h-.319v-1.551h.319zm.477 0v.25h-1.266v-.25h1.266zm1.223 1.302v.249h-.826v-.249h.826zm-.721-1.302v1.551h-.32v-1.551h.32zm.614.632v.243h-.718v-.243h.718zm.106-.632v.25h-.825v-.25h.825zm.188 0h.578c.119 0 .221.018.306.053s.152.088.198.158.069.155.069.257c0 .083-.014.154-.043.214s-.067.108-.118.148a.618.618 0 0 1-.174.093l-.004.001-.101.053H31.1l-.002-.249h.374c.056 0 .103-.01.14-.03s.065-.048.083-.083a.258.258 0 0 0 .029-.119v-.005c0-.05-.009-.093-.028-.129s-.047-.064-.084-.083-.085-.029-.142-.029h-.259v1.301h-.32v-1.551zm.867 1.551-.354-.691.338-.002.358.679v.015h-.342zm1.678-.553h-.395V21.3h.395c.061 0 .111-.01.149-.03s.066-.049.084-.085a.322.322 0 0 0-.001-.253l.001.002c-.018-.04-.046-.072-.084-.096s-.088-.036-.149-.036h-.284v1.301h-.32v-1.551h.604c.121 0 .225.022.312.066.161.078.269.24.269.427v.016-.001c0 .1-.023.187-.069.26s-.113.13-.2.169a.73.73 0 0 1-.293.06h-.02.001zm1.843.304v.249h-.826v-.249h.826zm-.721-1.302v1.551h-.32v-1.551h.32zm.613.632v.243h-.718v-.243h.718zm.107-.632v.25h-.825v-.25h.825zm.902 0v1.551h-.319v-1.551h.319zm.478 0v.25h-1.266v-.25h1.266zm1.222 1.302v.249h-.825v-.249h.825zm-.721-1.302v1.551h-.32v-1.551h.32zm.614.632v.243h-.718v-.243h.718zm.106-.632v.25h-.824v-.25h.824zm.188 0h.579c.119 0 .22.018.306.053s.152.088.198.158.069.155.069.257c0 .083-.014.154-.043.214s-.067.108-.118.148a.654.654 0 0 1-.173.093l-.005.001-.101.053h-.503l-.002-.249h.374c.056 0 .103-.01.139-.03s.065-.048.083-.083a.258.258 0 0 0 .029-.119v-.005c0-.05-.009-.093-.028-.129s-.047-.064-.084-.083a.31.31 0 0 0-.131-.029h-.268v1.301h-.32v-1.551zm.867 1.551-.354-.691.338-.002.358.679v.015h-.342zm1.338-.406v-.005a.192.192 0 0 0-.014-.072v.001c-.008-.023-.023-.043-.045-.062s-.053-.038-.093-.056a1.365 1.365 0 0 0-.144-.055l-.01-.003c-.071-.023-.137-.048-.2-.077s-.118-.061-.166-.099c-.048-.038-.085-.083-.113-.133s-.04-.109-.04-.176c0-.065.014-.123.043-.176s.068-.099.119-.136a.573.573 0 0 1 .177-.087l.004-.001a.807.807 0 0 1 .535.033l-.005-.002a.493.493 0 0 1 .197.167l.001.002a.425.425 0 0 1 .071.238v.009h-.317v-.007a.227.227 0 0 0-.03-.113l.001.001c-.018-.035-.047-.062-.085-.082s-.085-.03-.143-.03c-.055 0-.101.009-.139.026s-.064.039-.083.067a.158.158 0 0 0-.028.091v.003c0 .026.006.05.019.071s.033.041.06.06c.026.018.059.036.097.052s.083.032.133.048c.085.026.159.054.223.086s.119.068.162.108.076.085.098.135c.022.05.033.108.033.172v.017c0 .123-.06.231-.152.298l-.001.001c-.049.037-.109.065-.178.084a.86.86 0 0 1-.464-.003l.006.001a.675.675 0 0 1-.205-.094l.002.001c-.06-.041-.109-.094-.145-.158s-.054-.14-.054-.227h.321c0 .048.007.089.022.122s.036.06.063.081c.028.021.06.035.098.045a.495.495 0 0 0 .264-.01l-.004.001a.171.171 0 0 0 .107-.158v-.001z"/></symbol><symbol id="icon-client5" viewBox="0 0 61 32"><path d="M21.379 21.954c.083.09.134.211.134.344v.008c.005.083-.012.167-.048.244s-.091.146-.16.201a.956.956 0 0 1-.539.164l-.069-.002h.003-1.064v-2.23h1.042c.206-.012.41.04.577.148.067.051.121.115.156.187s.051.151.046.23v.02a.48.48 0 0 1-.122.321.573.573 0 0 1-.313.173l-.004.001a.622.622 0 0 1 .359.191zm-1.248-.337h.445l.032.001a.46.46 0 0 0 .253-.076l-.002.001c.033-.027.059-.061.076-.099s.023-.078.02-.119l.001-.018a.258.258 0 0 0-.094-.199.459.459 0 0 0-.293-.074h.002-.438v.585zm.772.855c.036-.028.064-.063.082-.102s.026-.082.023-.124c.003-.043-.006-.086-.024-.126s-.047-.075-.083-.103a.496.496 0 0 0-.273-.082l-.03.001h.001-.467v.613h.473a.504.504 0 0 0 .301-.078l-.002.001zm2.606.44-.58-.872h-.218v.872h-.499v-2.23h.944l.068-.002c.221 0 .426.072.592.194l-.003-.002c.132.121.212.28.224.45s-.042.337-.154.473a.793.793 0 0 1-.446.226l-.004.001.617.891h-.542zm-.798-1.175h.408c.283 0 .425-.113.425-.338.003-.046-.005-.092-.023-.135s-.046-.082-.081-.115a.475.475 0 0 0-.281-.092l-.042.002h.002-.413l.005.679zm3.523.727h-.994l-.175.449h-.523l.912-2.205h.565l.909 2.205h-.523l-.172-.449zm-.133-.338-.363-.941-.363.941h.726zm3.544.787h-.495l-1.11-1.516v1.516h-.494v-2.23h.494l1.11 1.525v-1.525h.495v2.23zm2.824-.534c-.108.172-.26.307-.442.39l-.006.003c-.193.089-.42.141-.658.141h-.04.002-.881v-2.23h.881c.241-.006.48.041.696.137.189.086.346.222.448.389a1.183 1.183 0 0 1-.003 1.176l.003-.006zm-.566-.054c.141-.148.219-.337.219-.532s-.078-.384-.219-.532a.92.92 0 0 0-.623-.19h.003-.344v1.443h.344l.058.002a.916.916 0 0 0 .564-.193l-.002.002zm-5.36-14.046s6.388 2.171 6.252 5.313v5.314s-6.383-2.172-6.25-5.314l-.002-5.313zm11.944 9.383a9.248 9.248 0 0 1 4.022-1.343l.037-.003v-1.663c-1.679.582-3.102 1.638-4.059 3.01z"/><path d="M37.762 18.163c.987-1.79 2.699-3.171 4.783-3.86V9.51s-9.097 3.093-8.905 7.567v7.566s.405-.138 1.043-.398c0-.242 0-.486.029-.731.188-2.077 1.285-4.002 3.05-5.351z"/><path d="M36.897 20.973a7.074 7.074 0 0 1 .334-1.599l-.014.05c-1.099 1.165-1.764 2.611-1.902 4.134a5.85 5.85 0 0 0-.024.43v.006a25.358 25.358 0 0 0 1.899-.902l-.149.072a6.891 6.891 0 0 1-.171-1.548c0-.226.011-.45.031-.671l-.002.028zm.362.028c-.06.663-.023 1.33.113 1.984 2.485-1.339 5.278-3.408 5.171-5.908v-.218c-1.776.179-3.437.878-4.729 1.989a6.691 6.691 0 0 0-.552 2.126l-.002.027z"/></symbol><symbol id="icon-client6" viewBox="0 0 61 32"><path d="M31.102 15.798a1.056 1.056 0 0 1-.219-.727v.003-1.05c0-.322.073-.567.219-.734s.397-.251.753-.25c.334 0 .572.071.712.214a.86.86 0 0 1 .21.631v-.003.247h-.598v-.28c0-.076-.006-.15-.018-.223l.001.008a.242.242 0 0 0-.085-.145.345.345 0 0 0-.192-.058l-.026.001h.001l-.025-.001a.364.364 0 0 0-.204.062l.001-.001a.285.285 0 0 0-.099.158v.002a1.26 1.26 0 0 0-.024.246v.015-.001 1.275a.654.654 0 0 0 .078.361l-.002-.003c.03.038.071.068.119.087s.102.026.154.02l.025.001c.07 0 .135-.022.188-.06l-.001.001a.258.258 0 0 0 .089-.153v-.002c.014-.085.02-.17.019-.255v-.259h.598v.236l.002.063a.951.951 0 0 1-.211.599l.001-.002c-.137.156-.371.234-.716.234s-.604-.083-.752-.256zm2.489.01c-.151-.163-.227-.402-.227-.717v-1.105c0-.312.076-.548.227-.708s.404-.24.758-.239c.352 0 .603.08.754.239s.228.396.228.708v1.105c0 .312-.077.551-.23.716s-.404.247-.752.247-.605-.083-.758-.246zm1.037-.265a.61.61 0 0 0 .073-.291l-.001-.037v.002-1.353l.001-.037a.599.599 0 0 0-.074-.288l.002.003c-.03-.039-.073-.069-.122-.088s-.104-.025-.158-.019c-.054-.006-.108 0-.158.019s-.092.049-.123.088a.586.586 0 0 0-.072.322v-.002 1.359l-.001.04c0 .105.027.204.075.29l-.002-.003a.384.384 0 0 0 .126.081.426.426 0 0 0 .311-.001l-.003.001a.39.39 0 0 0 .126-.081v-.006zm1.422-2.472h.644l.484 2.038.495-2.038h.627l.063 2.942H37.9l-.049-2.045-.478 2.045h-.371l-.495-2.052-.046 2.052h-.468l.058-2.942zm3.035 0h1.003c.578 0 .867.278.867.835 0 .533-.304.8-.912.799h-.342v1.308h-.619l.004-2.942zm.856 1.258c.061.007.123.002.182-.014s.113-.043.158-.079a.47.47 0 0 0 .089-.335v.002l.001-.031a.975.975 0 0 0-.031-.243l.001.007c-.009-.029-.024-.057-.046-.081s-.048-.044-.078-.059a.624.624 0 0 0-.277-.047h.002-.24v.879h.24zm1.906-1.258h.665l.682 2.942h-.577l-.135-.678h-.593l-.139.678h-.585l.682-2.942zm.568 1.923-.231-1.235-.232 1.235h.463zm1.33-1.923h.433l.829 1.678v-1.678h.514v2.942h-.412l-.835-1.752v1.752h-.531l.001-2.942zm2.98 1.821-.689-1.816h.581l.421 1.167.395-1.167h.568l-.681 1.816v1.122h-.594v-1.122zm-14.668 2.407v.154h-.505v1.195h-.212v-1.195h-.508v-.154h1.224zm1.584 1.35h-.167a.075.075 0 0 1-.042-.013.074.074 0 0 1-.027-.031l-.146-.32h-.701l-.146.32a.095.095 0 0 1-.022.036.075.075 0 0 1-.042.013h-.167l.619-1.349h.215l.626 1.344zm-1.025-.501h.584l-.248-.549a.87.87 0 0 1-.044-.12l-.002-.007-.023.072-.022.057-.245.548zm2.092.368a.65.65 0 0 0 .219-.017l-.005.001a.689.689 0 0 0 .176-.06l-.004.002v-.303h-.248c-.006 0-.012 0-.018-.002s-.011-.005-.015-.008-.007-.007-.009-.011-.003-.009-.003-.014V18h.48v.517a.913.913 0 0 1-.255.109l-.006.001a1.118 1.118 0 0 1-.15.028h-.005c-.06.006-.12.009-.181.009h-.01a.932.932 0 0 1-.309-.052l.007.002a.753.753 0 0 1-.249-.142l.001.001a.664.664 0 0 1-.158-.21l-.002-.004a.668.668 0 0 1-.057-.272v-.031c0-.188.084-.357.216-.472l.001-.001a.72.72 0 0 1 .243-.138l.005-.002a1.03 1.03 0 0 1 .322-.05h.011-.001c.058 0 .115.004.172.012.145.02.273.076.381.158l-.002-.001-.059.083c-.005.008-.012.014-.02.018s-.018.007-.028.007a.07.07 0 0 1-.038-.011.757.757 0 0 1-.065-.034l.004.002a.73.73 0 0 0-.33-.078h-.025.001-.008a.735.735 0 0 0-.236.039l.005-.002a.49.49 0 0 0-.296.272l-.001.003a.625.625 0 0 0 .002.454l-.001-.004a.536.536 0 0 0 .301.276l.004.001c.06.018.129.028.2.028.016 0 .031 0 .047-.002h-.002zm1.973-.021h.676v.154h-.883V17.3h.212l-.005 1.195zm1.38.154h-.212V17.3h.212v1.349zm.787-1.343a.131.131 0 0 1 .032.025l.905 1.017-.001-.024.001-.025v.001-1.006h.184v1.355h-.113a.115.115 0 0 1-.041-.008h.001a.106.106 0 0 1-.033-.026l-.904-1.016v1.05h-.177V17.3h.11c.012 0 .024.002.035.006zm2.681-.007v.148h-.751v.445h.608v.143h-.608v.46h.751v.148h-.968v-1.346h.968zM19.344 8.967l9.401 2.303v8.071l-9.401-2.302V8.967zm-.603-.688v9.152l10.605 2.599v-9.151l-10.605-2.6z"/><path d="m24.425 24.279-10.607-2.601v-9.151l10.607 2.6v9.152zM18.917 8.863l9.278 2.274-3.946 3.406-9.279-2.276 3.947-3.405zm-.176-.584-4.923 4.248 10.607 2.6 4.921-4.248-10.605-2.6zm6.28 15.485 4.325-3.733-4.325-1.061v4.793z"/></symbol><symbol id="icon-clock" viewBox="0 0 32 32"><path fill="#2e2f42" d="M31.297 15.301C31.295 6.849 24.442-.002 15.989 0S.686 6.855.688 15.308c.001 6.788 4.422 12.543 10.541 14.545l.108.031a.657.657 0 0 0 .532-.067l-.003.002a.64.64 0 0 0 .282-.352l.001-.005 3.865-12.25a1.912 1.912 0 1 0-.851-3.63l.011-.005-5.106-5.107a.637.637 0 1 0-.902.902l5.103 5.109a1.873 1.873 0 0 0 .532 2.306l.004.003-3.683 11.673C3.844 25.782.118 17.709 2.799 10.431S13.553-.573 20.831 2.108c7.278 2.681 11.004 10.754 8.323 18.032-1.345 3.581-4.003 6.406-7.374 7.937l-.088.036-.398-1.874a.639.639 0 0 0-1.05-.344h.001l-3.837 3.426a.638.638 0 0 0 .227 1.083l.005.001 4.899 1.564a.638.638 0 0 0 .818-.745l.001.004-.391-1.839c5.528-2.374 9.329-7.772 9.329-14.057v-.034.002zm-15.305-.637a.639.639 0 1 1 0 1.278.639.639 0 1 1 0-1.278zm2.101 14.864 2.184-1.948.603 2.84-2.787-.892z" style="fill:var(--color2, #2e2f42)"/><path fill="#4d5ae5" d="M15.354 3.185V4.46a.638.638 0 0 0 1.276 0V3.185a.638.638 0 0 0-1.276 0zM3.876 14.664a.638.638 0 0 0 0 1.276h1.275a.638.638 0 0 0 0-1.276H3.876zm24.232 1.275a.638.638 0 0 0 0-1.276h-1.275a.638.638 0 0 0 0 1.276h1.275z" style="fill:var(--color3, #4d5ae5)"/></symbol><symbol id="icon-diagram" viewBox="0 0 32 32"><path fill="#4d5ae5" d="M14.925 14.965h1.066v4.798h-1.066v-4.797zm4.265 2.132h1.066v2.665H19.19v-2.665zm-8.529 1.599h1.066v1.066h-1.066v-1.066zm-3.198-.533h1.066v1.599H7.463v-1.599z" style="fill:var(--color3, #4d5ae5)"/><path fill="#2e2f42" d="M1.599 28.291h25.587a1.6 1.6 0 0 0 1.599-1.599V24.56a1.6 1.6 0 0 0-1.599-1.599h-.533V9.668L29.681 6.8a1.608 1.608 0 1 0-.741-.753l-.004-.01L26.655 8.2V6.97a1.6 1.6 0 0 0-1.599-1.599H3.734A1.6 1.6 0 0 0 2.135 6.97v15.992h-.533a1.6 1.6 0 0 0-1.599 1.599v2.132a1.6 1.6 0 0 0 1.599 1.599zM30.384 4.837a.534.534 0 1 1 0 1.068.534.534 0 1 1 0-1.068zM3.198 6.969c0-.294.239-.533.533-.533h21.322c.294 0 .533.239.533.533v2.239l-1.066 1.013V8.035a.533.533 0 0 0-.533-.533H4.797a.533.533 0 0 0-.533.533v13.326c0 .294.239.533.533.533h19.19a.533.533 0 0 0 .533-.533v-9.674l1.066-1.01v12.284H3.198V6.969zm4.798 6.93h-.002a1.597 1.597 0 1 0 1.109 2.749h-.001l1.853.93a.528.528 0 0 0 .636-.123v-.001l3.939-4.431 3.872 2.901a.527.527 0 0 0 .686-.039l3.365-3.188v8.131H5.329V8.568h18.124v2.66L19.682 14.8l-3.904-2.927a.534.534 0 0 0-.718.071v.001l-3.993 4.493-1.493-.746c.011-.064.018-.129.02-.193A1.6 1.6 0 0 0 7.995 13.9zm.533 1.599a.533.533 0 1 1-1.068-.001.534.534 0 1 1 1.068 0zm3.198 8.529h5.331v.533a.533.533 0 0 1-.533.533h-4.264a.533.533 0 0 1-.533-.533v-.533zm-10.661.533c0-.294.239-.533.533-.533h9.062v.533a1.6 1.6 0 0 0 1.599 1.599h4.264a1.6 1.6 0 0 0 1.599-1.599v-.533h9.062c.294 0 .533.239.533.533v2.132a.533.533 0 0 1-.533.533H1.598a.533.533 0 0 1-.533-.533V24.56z" style="fill:var(--color2, #2e2f42)"/></symbol><symbol id="icon-ellipse" viewBox="0 0 32 32"><path fill="#4d5ae5" d="M32 16c0 4.418-1.791 8.418-4.686 11.314S20.419 32 16 32c-4.418 0-8.418-1.791-11.314-4.686S0 20.419 0 16c0-4.418 1.791-8.418 4.686-11.314S11.581 0 16 0c4.418 0 8.418 1.791 11.314 4.686S32 11.581 32 16z" style="fill:var(--color3, #4d5ae5)"/></symbol><symbol id="icon-facebook" viewBox="0 0 32 32"><path fill="#f4f4fd" d="M21.329 5.313h2.921V.225C23.746.156 22.013 0 19.994 0c-4.212 0-7.097 2.649-7.097 7.519V12H8.249v5.688h4.648V32h5.699V17.689h4.46l.708-5.688h-5.169V8.082c.001-1.644.444-2.769 2.735-2.769z" style="fill:var(--color4, #f4f4fd)"/></symbol><symbol id="icon-instagram" viewBox="0 0 32 32"><path fill="#f4f4fd" d="M31.969 9.408c-.075-1.7-.35-2.869-.744-3.882a7.845 7.845 0 0 0-1.849-2.837l-.001-.001A7.88 7.88 0 0 0 26.597.862l-.054-.018C25.524.45 24.361.175 22.661.1 20.948.019 20.404 0 16.06 0s-4.888.019-6.595.094c-1.7.075-2.869.35-3.882.744a7.845 7.845 0 0 0-2.837 1.849l-.001.001A7.89 7.89 0 0 0 .919 5.466l-.018.054C.507 6.539.232 7.702.157 9.402c-.081 1.713-.1 2.257-.1 6.601s.019 4.888.094 6.595c.075 1.7.35 2.869.744 3.882a7.941 7.941 0 0 0 1.849 2.837l.001.001a7.89 7.89 0 0 0 2.778 1.826l.054.018c1.019.394 2.182.669 3.882.744 1.706.075 2.25.094 6.595.094s4.888-.018 6.595-.094c1.7-.075 2.869-.35 3.882-.744a8.23 8.23 0 0 0 4.663-4.627l.019-.055c.394-1.019.669-2.182.744-3.882.075-1.707.094-2.251.094-6.595s-.006-4.888-.081-6.595zm-2.882 13.065c-.069 1.563-.331 2.407-.55 2.969a5.334 5.334 0 0 1-3.002 3.025l-.036.013c-.563.219-1.413.481-2.969.55-1.688.075-2.194.094-6.464.094s-4.782-.018-6.464-.094c-1.563-.069-2.407-.331-2.969-.55a4.947 4.947 0 0 1-1.837-1.193l-.001-.001a4.988 4.988 0 0 1-1.183-1.804l-.011-.034c-.219-.563-.481-1.413-.55-2.969-.075-1.688-.094-2.194-.094-6.464s.019-4.782.094-6.464c.069-1.563.331-2.407.55-2.969a4.885 4.885 0 0 1 1.198-1.836l.002-.002a4.988 4.988 0 0 1 1.804-1.183l.034-.011c.563-.219 1.413-.481 2.969-.55 1.688-.075 2.194-.094 6.464-.094 4.276 0 4.782.019 6.464.094 1.563.069 2.407.331 2.969.55a4.947 4.947 0 0 1 1.837 1.193l.001.001a4.988 4.988 0 0 1 1.183 1.804l.011.034c.219.563.481 1.413.55 2.969.075 1.688.094 2.194.094 6.464s-.019 4.77-.094 6.457z" style="fill:var(--color4, #f4f4fd)"/><path fill="#f4f4fd" d="M16.059 7.782c-4.538 0-8.22 3.682-8.22 8.22s3.682 8.22 8.22 8.22 8.22-3.682 8.22-8.22-3.682-8.22-8.22-8.22zm0 13.553a5.334 5.334 0 0 1-.006-10.664h.005a5.334 5.334 0 0 1 .006 10.664h-.005zM26.524 7.457a1.919 1.919 0 1 1-3.838 0 1.919 1.919 0 1 1 3.838 0z" style="fill:var(--color4, #f4f4fd)"/></symbol><symbol id="icon-linkedin" viewBox="0 0 32 32"><path fill="#f4f4fd" d="M31.992 32v-.001H32V20.263c0-5.741-1.236-10.164-7.948-10.164-3.227 0-5.392 1.771-6.276 3.449h-.093v-2.913h-6.364v21.364h6.627V21.42c0-2.785.528-5.479 3.977-5.479 3.399 0 3.449 3.179 3.449 5.657v10.401h6.62zM.528 10.636h6.635V32H.528V10.636zM3.843 0C1.722 0 0 1.721 0 3.843s1.721 3.879 3.843 3.879c2.121 0 3.843-1.757 3.843-3.879A3.846 3.846 0 0 0 3.843 0z" style="fill:var(--color4, #f4f4fd)"/></symbol><symbol id="icon-twitter" viewBox="0 0 32 32"><path fill="#f4f4fd" d="M32 6.078c-1.19.522-2.458.868-3.78 1.036a6.555 6.555 0 0 0 2.873-3.58l.013-.046a12.858 12.858 0 0 1-4.076 1.574l-.084.014A6.559 6.559 0 0 0 22.154 3c-3.632 0-6.556 2.948-6.556 6.562 0 .52.044 1.02.152 1.496-5.454-.266-10.28-2.88-13.522-6.862a6.533 6.533 0 0 0-.898 3.316 6.56 6.56 0 0 0 2.891 5.437l.023.015a6.454 6.454 0 0 1-2.997-.825l.033.017v.072c0 3.188 2.274 5.836 5.256 6.446a6.408 6.408 0 0 1-1.669.216h-.054.003a5.842 5.842 0 0 1-1.279-.118l.037.006c.85 2.598 3.262 4.508 6.13 4.57a13.098 13.098 0 0 1-8.12 2.798h-.015.001c-.538 0-1.054-.024-1.57-.09C2.826 27.902 6.287 29 10.004 29h.063-.003c12.072 0 18.672-10 18.672-18.668 0-.29-.01-.57-.024-.848a13.186 13.186 0 0 0 3.258-3.359l.03-.047z" style="fill:var(--color4, #f4f4fd)"/></symbol></defs></svg>